<svg id="eQZDkS4rgXN1" xmlns="http://www.w3.org/2000/svg" xmlns:xlink="http://www.w3.org/1999/xlink" viewBox="0 0 170 50" shape-rendering="geometricPrecision" text-rendering="geometricPrecision" width="170" height="50"><style><![CDATA[#eQZDkS4rgXN1{pointer-events: all}#eQZDkS4rgXN1:hover #eQZDkS4rgXN22 {animation: eQZDkS4rgXN22_f_p 1500ms linear infinite normal forwards}@keyframes eQZDkS4rgXN22_f_p { 0% {fill: rgb(111,63,245)} 26.666667% {fill: rgb(111,63,245)} 60% {fill: rgb(255,204,0)} 93.333333% {fill: rgb(111,63,245)} 100% {fill: rgb(111,63,245)}} #eQZDkS4rgXN1:hover #eQZDkS4rgXN23 {animation: eQZDkS4rgXN23_f_p 1500ms linear infinite normal forwards}@keyframes eQZDkS4rgXN23_f_p { 0% {fill: rgb(111,63,245)} 13.333333% {fill: rgb(111,63,245)} 46.666667% {fill: rgb(255,204,0)} 80% {fill: rgb(111,63,245)} 100% {fill: rgb(111,63,245)}} #eQZDkS4rgXN1:hover #eQZDkS4rgXN24 {animation: eQZDkS4rgXN24_f_p 1500ms linear infinite normal forwards}@keyframes eQZDkS4rgXN24_f_p { 0% {fill: rgb(111,63,245)} 33.333333% {fill: rgb(255,204,0)} 66.666667% {fill: rgb(111,63,245)} 100% {fill: rgb(111,63,245)}}]]></style><defs><linearGradient id="eQZDkS4rgXN21-fill" x1="-0.133011" y1="1.047659" x2="1" y2="0.315947" spreadMethod="pad" gradientUnits="objectBoundingBox"><stop id="eQZDkS4rgXN21-fill-0" offset="0%" stop-color="rgb(111,63,245)"/><stop id="eQZDkS4rgXN21-fill-1" offset="100%" stop-color="rgb(111,63,245)"/></linearGradient></defs><g id="eQZDkS4rgXN2" transform="matrix(1 0 0 1 25.12520599947324 -76.27801131842955)"><path id="eQZDkS4rgXN3" d="M106.400000,108.570000L109,108.570000L110.730000,114.250000L114.480000,108.570000L117.120000,108.570000L115.120000,120L112.400000,120L113.490000,113.840000L111.110000,117.440000L109.300000,117.440000L108.200000,113.840000L107.110000,120L104.390000,120Z" transform="matrix(1 0 0 1 -70 -21)" fill="rgb(111,63,245)" stroke="none" stroke-width="1"/><path id="eQZDkS4rgXN4" d="M120.070000,112.650000C120.370000,110.910000,120.710000,110.170000,121.490000,109.450000C122.473048,108.636990,123.740792,108.251625,125.010000,108.380000C127.700000,108.380000,129.010000,109.380000,129.010000,111.520000C128.995482,112.114223,128.931933,112.706234,128.820000,113.290000L128.360000,115.920000C128.050000,117.660000,127.720000,118.400000,126.930000,119.120000C125.983663,119.906731,124.766506,120.290908,123.540000,120.190000C122.392778,120.329707,121.235864,120.021674,120.310000,119.330000C119.683014,118.743593,119.352605,117.906557,119.410000,117.050000C119.422084,116.455619,119.485655,115.863404,119.600000,115.280000ZM125.990000,113.200000C126.068949,112.770754,126.115746,112.336213,126.130000,111.900000C126.130000,111.020000,125.760000,110.670000,124.850000,110.670000C123.600000,110.670000,123.170000,111.210000,122.850000,113.200000L122.470000,115.370000C122.381340,115.808115,122.331149,116.253143,122.320000,116.700000C122.320000,117.550000,122.710000,117.900000,123.600000,117.900000C124.850000,117.900000,125.280000,117.360000,125.600000,115.370000Z" transform="matrix(1 0 0 1 -70 -21)" fill="rgb(111,63,245)" stroke="none" stroke-width="1"/><path id="eQZDkS4rgXN5" d="M132.320000,112.650000C132.630000,110.910000,132.960000,110.170000,133.750000,109.450000C134.731963,108.634972,136.000571,108.249344,137.270000,108.380000C139.960000,108.380000,141.270000,109.380000,141.270000,111.520000C141.255482,112.114223,141.191933,112.706234,141.080000,113.290000L140.610000,115.920000C140.310000,117.660000,139.970000,118.400000,139.190000,119.120000C138.243663,119.906731,137.026506,120.290908,135.800000,120.190000C134.649619,120.330259,133.489393,120.022298,132.560000,119.330000C131.936693,118.741745,131.610055,117.904963,131.670000,117.050000C131.682084,116.455619,131.745655,115.863404,131.860000,115.280000ZM138.240000,113.200000C138.326327,112.771633,138.376503,112.336770,138.390000,111.900000C138.390000,111.020000,138.020000,110.670000,137.110000,110.670000C135.860000,110.670000,135.430000,111.210000,135.110000,113.200000L134.720000,115.370000C134.638841,115.809021,134.592033,116.253702,134.580000,116.700000C134.580000,117.550000,134.960000,117.900000,135.860000,117.900000C137.110000,117.900000,137.540000,117.360000,137.860000,115.370000Z" transform="matrix(1 0 0 1 -70 -21)" fill="rgb(111,63,245)" stroke="none" stroke-width="1"/><path id="eQZDkS4rgXN6" d="M145.570000,108.570000L148.340000,108.570000L150.660000,115.250000L151.850000,108.570000L154.600000,108.570000L152.600000,120L149.830000,120L147.510000,113.330000L146.310000,120L143.550000,120Z" transform="matrix(1 0 0 1 -70 -21)" fill="rgb(111,63,245)" stroke="none" stroke-width="1"/><path id="eQZDkS4rgXN7" d="M158,116.700000C158.350000,117.580000,159,117.920000,160.160000,117.920000C161.320000,117.920000,161.870000,117.440000,161.870000,116.560000C161.870000,116.080000,161.600000,115.820000,160.870000,115.650000C159.885065,115.508805,158.944889,115.146409,158.120000,114.590000C157.437102,114.081102,157.060249,113.259563,157.120000,112.410000C157.120000,109.880000,158.770000,108.410000,161.520000,108.410000C163.620000,108.410000,164.890000,109.050000,165.460000,110.410000L163.120000,111.730000C162.812356,111.059937,162.113836,110.658489,161.380000,110.730000C161.023825,110.695895,160.669946,110.814829,160.406665,111.057124C160.143384,111.299419,159.995531,111.642224,160,112C160,112.600000,160.350000,112.840000,161.710000,113.220000C163.980000,113.830000,164.710000,114.520000,164.710000,116.070000C164.767568,117.202743,164.363460,118.310434,163.590000,119.140000C162.585349,119.937595,161.320061,120.333220,160.040000,120.250000C158.852983,120.292949,157.676942,120.009316,156.640000,119.430000C156.176868,119.109707,155.826856,118.651191,155.640000,118.120000Z" transform="matrix(1 0 0 1 -70 -21)" fill="rgb(111,63,245)" stroke="none" stroke-width="1"/><path id="eQZDkS4rgXN8" d="M169.250000,108.570000L172.100000,108.570000L171.300000,113.080000L174.150000,113.080000L174.950000,108.570000L177.800000,108.570000L175.800000,120L172.950000,120L173.770000,115.370000L170.900000,115.370000L170.080000,120L167.230000,120Z" transform="matrix(1 0 0 1 -70 -21)" fill="rgb(111,63,245)" stroke="none" stroke-width="1"/><path id="eQZDkS4rgXN9" d="M180.710000,112.650000C181.010000,110.910000,181.350000,110.170000,182.130000,109.450000C183.111963,108.634972,184.380571,108.249344,185.650000,108.380000C188.340000,108.380000,189.650000,109.380000,189.650000,111.520000C189.635482,112.114223,189.571933,112.706234,189.460000,113.290000L189,115.920000C188.690000,117.660000,188.360000,118.400000,187.570000,119.120000C186.623663,119.906731,185.406506,120.290908,184.180000,120.190000C183.032778,120.329707,181.875864,120.021674,180.950000,119.330000C180.323014,118.743593,179.992605,117.906557,180.050000,117.050000C180.062084,116.455619,180.125655,115.863404,180.240000,115.280000ZM186.630000,113.200000C186.708949,112.770754,186.755746,112.336213,186.770000,111.900000C186.770000,111.020000,186.400000,110.670000,185.490000,110.670000C184.240000,110.670000,183.810000,111.210000,183.490000,113.200000L183.110000,115.370000C183.021340,115.808115,182.971149,116.253143,182.960000,116.700000C182.960000,117.550000,183.350000,117.900000,184.240000,117.900000C185.490000,117.900000,185.920000,117.360000,186.240000,115.370000Z" transform="matrix(1 0 0 1 -70 -21)" fill="rgb(111,63,245)" stroke="none" stroke-width="1"/><path id="eQZDkS4rgXN10" d="M195.300000,110.860000L192.300000,110.860000L192.700000,108.570000L201.440000,108.570000L201.040000,110.860000L198.100000,110.860000L196.530000,120L193.680000,120Z" transform="matrix(1 0 0 1 -70 -21)" fill="rgb(111,63,245)" stroke="none" stroke-width="1"/><path id="eQZDkS4rgXN11" d="M112.910000,133.790000C112.787457,134.685199,112.372633,135.514847,111.730000,136.150000C110.776253,136.960577,109.536519,137.353400,108.290000,137.240000C107.213121,137.353311,106.135033,137.037072,105.290000,136.360000C104.683091,135.782187,104.361228,134.966558,104.410000,134.130000C104.433790,133.518889,104.503992,132.910470,104.620000,132.310000L105.070000,129.760000C105.390000,128,105.710000,127.260000,106.480000,126.560000C107.403292,125.758548,108.611873,125.365308,109.830000,125.470000C110.861573,125.376729,111.891134,125.668854,112.720000,126.290000C113.307490,126.840936,113.634443,127.614726,113.620000,128.420000C113.617714,128.628503,113.594260,128.836236,113.550000,129.040000L110.910000,129.220000C110.918615,129.126865,110.918615,129.033135,110.910000,128.940000C110.910000,128.100000,110.560000,127.760000,109.690000,127.760000C108.570000,127.760000,108.160000,128.320000,107.800000,130.310000L107.440000,132.400000C107.340772,132.856892,107.287176,133.322512,107.280000,133.790000C107.280000,134.610000,107.610000,134.950000,108.480000,134.950000C109.350000,134.950000,109.970000,134.530000,110.290000,133.470000Z" transform="matrix(1 0 0 1 -70 -21)" fill="rgb(111,63,245)" stroke="none" stroke-width="1"/><path id="eQZDkS4rgXN12" d="M116.480000,129.700000C116.780000,127.950000,117.120000,127.220000,117.900000,126.500000C118.884575,125.681833,120.156186,125.292784,121.430000,125.420000C124.110000,125.420000,125.430000,126.420000,125.430000,128.560000C125.411072,129.157236,125.347562,129.752225,125.240000,130.340000L124.770000,132.960000C124.470000,134.710000,124.130000,135.440000,123.350000,136.160000C122.403172,136.953803,121.181349,137.341912,119.950000,137.240000C118.801085,137.382183,117.642072,137.070003,116.720000,136.370000C116.093408,135.787514,115.762782,134.953601,115.820000,134.100000C115.835599,133.502036,115.902512,132.906516,116.020000,132.320000ZM122.400000,130.240000C122.486327,129.811633,122.536503,129.376770,122.550000,128.940000C122.550000,128.060000,122.180000,127.710000,121.270000,127.710000C120.020000,127.710000,119.580000,128.260000,119.270000,130.240000L118.890000,132.420000C118.800829,132.858035,118.750633,133.303107,118.740000,133.750000C118.740000,134.590000,119.130000,134.950000,120.020000,134.950000C121.270000,134.950000,121.700000,134.400000,122.020000,132.420000Z" transform="matrix(1 0 0 1 -70 -21)" fill="rgb(111,63,245)" stroke="none" stroke-width="1"/><path id="eQZDkS4rgXN13" d="M129.710000,125.620000L132.560000,125.620000L130.940000,134.750000L135.570000,134.750000L135.170000,137.040000L127.700000,137.040000Z" transform="matrix(1 0 0 1 -70 -21)" fill="rgb(111,63,245)" stroke="none" stroke-width="1"/><path id="eQZDkS4rgXN14" d="M140.130000,125.620000L143,125.620000L141.380000,134.750000L146,134.750000L145.590000,137.040000L138.120000,137.040000Z" transform="matrix(1 0 0 1 -70 -21)" fill="rgb(111,63,245)" stroke="none" stroke-width="1"/><path id="eQZDkS4rgXN15" d="M150.580000,125.620000L158,125.620000L157.600000,127.900000L153,127.900000L152.600000,130.130000L156.460000,130.130000L156.060000,132.420000L152.200000,132.420000L151.790000,134.750000L156.460000,134.750000L156.060000,137.040000L148.570000,137.040000Z" transform="matrix(1 0 0 1 -70 -21)" fill="rgb(111,63,245)" stroke="none" stroke-width="1"/><path id="eQZDkS4rgXN16" d="M168.320000,133.790000C168.197457,134.685199,167.782633,135.514847,167.140000,136.150000C166.186253,136.960577,164.946519,137.353400,163.700000,137.240000C162.623022,137.354414,161.544521,137.038054,160.700000,136.360000C160.093091,135.782187,159.771228,134.966558,159.820000,134.130000C159.843790,133.518889,159.913992,132.910470,160.030000,132.310000L160.480000,129.760000C160.800000,128,161.120000,127.260000,161.890000,126.560000C162.810223,125.760124,164.015099,125.366916,165.230000,125.470000C166.264822,125.375164,167.298061,125.667321,168.130000,126.290000C168.717490,126.840936,169.044443,127.614726,169.030000,128.420000C169.027714,128.628503,169.004260,128.836236,168.960000,129.040000L166.320000,129.220000C166.328615,129.126865,166.328615,129.033135,166.320000,128.940000C166.320000,128.100000,165.970000,127.760000,165.100000,127.760000C163.980000,127.760000,163.560000,128.320000,163.210000,130.310000L162.840000,132.400000C162.746173,132.857771,162.692635,133.322883,162.680000,133.790000C162.680000,134.610000,163.020000,134.950000,163.880000,134.950000C164.740000,134.950000,165.370000,134.530000,165.690000,133.470000Z" transform="matrix(1 0 0 1 -70 -21)" fill="rgb(111,63,245)" stroke="none" stroke-width="1"/><path id="eQZDkS4rgXN17" d="M174.480000,127.900000L171.540000,127.900000L171.940000,125.620000L180.670000,125.620000L180.270000,127.900000L177.330000,127.900000L175.710000,137L172.860000,137Z" transform="matrix(1 0 0 1 -70 -21)" fill="rgb(111,63,245)" stroke="none" stroke-width="1"/><path id="eQZDkS4rgXN18" d="M183.440000,125.620000L186.290000,125.620000L184.290000,137.040000L181.440000,137.040000Z" transform="matrix(1 0 0 1 -70 -21)" fill="rgb(111,63,245)" stroke="none" stroke-width="1"/><path id="eQZDkS4rgXN19" d="M188.930000,125.620000L191.710000,125.620000L192.620000,133.330000L196.260000,125.620000L199.160000,125.620000L193.280000,137L190.770000,137Z" transform="matrix(1 0 0 1 -70 -21)" fill="rgb(111,63,245)" stroke="none" stroke-width="1"/><path id="eQZDkS4rgXN20" d="M201.860000,125.620000L209.250000,125.620000L208.850000,127.900000L204.270000,127.900000L203.870000,130.130000L207.730000,130.130000L207.330000,132.420000L203.470000,132.420000L203.060000,134.750000L207.730000,134.750000L207.330000,137.040000L199.840000,137.040000Z" transform="matrix(1 0 0 1 -70 -21)" fill="rgb(111,63,245)" stroke="none" stroke-width="1"/><path id="eQZDkS4rgXN21" d="M74.300000,119.600000C76.586504,121.889354,79.689379,123.175740,82.925000,123.175740C86.160621,123.175740,89.263496,121.889354,91.550000,119.600000C92.114654,119.029739,92.623625,118.406919,93.070000,117.740000C88.236420,120.941346,81.817452,120.298831,77.714297,116.202951C73.611142,112.107071,72.957237,105.689254,76.150000,100.850000C73.110547,102.872743,71.139784,106.153202,70.781294,109.786554C70.422803,113.419907,71.714461,117.022258,74.300000,119.600000Z" transform="matrix(1 0 0 1 -70 -21)" fill="url(#eQZDkS4rgXN21-fill)" stroke="none" stroke-width="1"/><path id="eQZDkS4rgXN22" d="M77.450000,127.080000L68.370000,137.780000C62.370000,144.860000,63.220000,145.720000,70.290000,139.690000L86.290000,125.980000C83.482896,127.084903,80.442283,127.463260,77.450000,127.080000Z" transform="matrix(1 0 0 1 -70 -21)" fill="rgb(111,63,245)" stroke="none" stroke-width="1"/><path id="eQZDkS4rgXN23" d="M70.790000,123.140000C70.300000,122.650000,69.550000,121.830000,69.130000,121.310000L58.450000,133.760000C50.770000,142.510000,51.630000,143.370000,60.360000,135.680000L73,125.140000C72.430000,124.670000,71.340000,123.690000,70.790000,123.140000Z" transform="matrix(1 0 0 1 -70 -21)" fill="rgb(111,63,245)" stroke="none" stroke-width="1"/><path id="eQZDkS4rgXN24" d="M67.750000,108.240000L54.500000,123.820000C48.500000,130.900000,49.340000,131.760000,56.410000,125.730000L66.950000,116.730000C66.532775,113.876774,66.807141,110.965068,67.750000,108.240000Z" transform="matrix(1 0 0 1 -70 -21)" fill="rgb(111,63,245)" stroke="none" stroke-width="1"/></g></svg>