<svg id="Layer_1" data-name="Layer 1" xmlns="http://www.w3.org/2000/svg" width="1000" height="1000" viewBox="0 0 1000 1000"><path id="Circular_Join_Us" data-name="Circular Join Us" d="M331,92.16,359,154.45c4.37,9.67,1.13,18.23-8.55,22.59L336.8,183.2l-7-15.57,7.79-3.51c3.89-1.75,5-4.66,3.23-8.55L315.38,99.18Zm54.69-14.89c5.5-9,14.64-11.17,23.61-5.67l20.33,12.56L440,127.33l-12.41,20.42c-5.5,9-14.63,11.17-23.61,5.67l-20.45-12.53L373.12,97.72Zm20.07,12c-3.56-2.28-6.64-1.54-8.89,2.14l-5.5,9,7.18,29.89,9,5.5c3.68,2.26,6.76,1.51,8.9-2.14l5.38-8.94-7.18-29.89Zm88.87,37.59,1.46-.08.92,17.06-7.92.43c-10.6.56-17.4-5.54-18-16.14l-2.41-44.84c-.23-4.26-2.41-6.22-6.67-6l-1.47.08-.91-17.06,7.79-.42c10.72-.57,17.4,5.42,18,16.14l2.4,44.71C488,125,490.32,127.08,494.58,126.85Zm87.54-61.16,7.87,1L587.8,83.64l-1.45-.18c-4.23-.55-6.68,1.23-7.22,5.46l-7.92,61.47-16.94-2.18,2.91-22.63-18.45-23.9-5.64,43.8-16.94-2.18,10.92-84.71L544,60.78l-2,15.49,18.45,23.9L563,80.45C564.37,69.8,571.59,64.33,582.12,65.69Zm107.8,35.83-28.3,55c-2,3.8-1,6.75,2.8,8.71l10.74,5.52L706.41,110l15.19,7.81-28.3,55c-1.95,3.8-1,6.76,2.8,8.71l3.79,2-7.81,15.18-41.23-21.2c-9.43-4.86-12.23-13.56-7.37-23L674.73,93.7Zm66.66,82.61,6,4.94c8.31,6.8,9.21,15.72,2.41,24l-10.81,13.22c-6.71,8.22-15.72,9.21-24,2.42l-23.14-18.92,10.81-13.22,18.23,14.9c3.3,2.7,6.3,2.31,9-1l2.7-3.31c2.71-3.31,2.41-6.23-.89-8.93l-6-4.94c-8.31-6.79-9.13-15.82-2.42-24l10.81-13.23c6.8-8.31,15.73-9.21,24-2.42l20.88,17.07L783.36,184l-16-13c-3.3-2.7-6.22-2.4-8.93.9l-2.7,3.31C753.06,178.41,753.28,181.43,756.58,184.13Zm8.21,80.62a8.54,8.54,0,1,1,12.05.82A8.65,8.65,0,0,1,764.79,264.75Zm71-50.71-45,39.33L779.57,240.5l45-39.33Zm66,103.64-61.35,30.06c-9.53,4.67-18.18,1.71-22.85-7.82L811,326.44l15.33-7.51,3.76,7.67c1.88,3.83,4.82,4.84,8.65,3l55.55-27.22Zm16.64,54.16c9.15,5.21,11.63,14.27,6.43,23.42L913,416l-42.82,11.75L849.33,416c-9.15-5.2-11.63-14.26-6.43-23.41l11.87-20.84L897.59,360Zm-11.34,20.45c2.17-3.63,1.33-6.69-2.42-8.82l-9.15-5.21-29.64,8.14-5.21,9.14c-2.14,3.75-1.3,6.81,2.42,8.82l9.11,5.09,29.65-8.13Zm-34.74,90,.13,1.46-17,1.45-.68-7.9c-.9-10.57,5-17.56,15.56-18.47L915.07,455c4.26-.36,6.15-2.61,5.78-6.86l-.12-1.46,17-1.46.66,7.78c.92,10.7-4.86,17.56-15.56,18.48l-44.61,3.82C874,475.69,872,478.06,872.35,482.32Zm63.9,85.51-.77,7.9-17-1.65.14-1.45c.41-4.25-1.44-6.64-5.69-7l-61.68-6,1.64-17,22.71,2.19,23.3-19.19-44-4.25,1.64-17,85,8.21-1.64,17-15.54-1.5-23.3,19.2,19.79,1.91C931.57,550.22,937.27,557.27,936.25,567.83ZM903.92,676.74,848,650.23c-3.86-1.83-6.78-.79-8.61,3.07l-5.18,10.91L896,693.49l-7.32,15.44-55.89-26.52c-3.86-1.83-6.78-.78-8.61,3.07l-1.83,3.86L806.88,682l19.88-41.89c4.55-9.59,13.16-12.66,22.75-8.11l61.73,29.29ZM823.48,746l-4.75,6.2c-6.52,8.52-15.42,9.7-23.94,3.18L781.22,745c-8.42-6.45-9.7-15.42-3.18-24l18.17-23.73,13.57,10.38-14.32,18.7c-2.59,3.39-2.11,6.37,1.28,9l3.39,2.6c3.39,2.6,6.3,2.21,8.9-1.18l4.74-6.2c6.53-8.53,15.52-9.63,24-3.18l13.56,10.38c8.53,6.53,9.71,15.42,3.18,23.94l-16.39,21.41-13.56-10.38L837,756.38c2.6-3.39,2.21-6.3-1.18-8.89l-3.39-2.6C829.08,742.3,826.07,742.61,823.48,746Zm-80.33,10.78a8.57,8.57,0,0,1,12.07.43,8.54,8.54,0,0,1-12.51,11.64A8.65,8.65,0,0,1,743.15,756.78Zm52.93,69.39-40.73-43.75,12.5-11.64,40.74,43.76ZM694.65,895.39l-32-60.35c-5-9.38-2.3-18.12,7.08-23.1l13.26-7L691,820l-7.54,4c-3.77,2-4.69,5-2.68,8.74l29,54.64ZM641,913.76c-4.91,9.31-13.89,12.09-23.2,7.18l-21.09-11.23-13.13-42.42,11.07-21.18c4.91-9.3,13.89-12.08,23.2-7.17l21.21,11.19,13.12,42.42Zm-20.8-10.67c3.7,2,6.73,1.11,8.74-2.71l4.91-9.31L624.8,861.7l-9.31-4.91c-3.81-2-6.84-1.07-8.74,2.71L602,868.77,611,898.14Zm-91.13-31.83-1.45.17-2-17,7.88-.92c10.54-1.25,17.72,4.42,19,15l5.25,44.59c.5,4.24,2.8,6.06,7,5.56l1.45-.17,2,17-7.75.92c-10.67,1.25-17.71-4.31-19-15l-5.24-44.47C535.79,872.68,533.35,870.76,529.11,871.26Zm-83.45,66.56-7.91-.51,1.1-17,1.46.09c4.26.28,6.59-1.65,6.86-5.91l4-61.85,17.05,1.1-1.48,22.77,19.93,22.68,2.85-44.07,17.05,1.1-5.51,85.23L484,940.3l1-15.58L465.09,902l-1.28,19.85C463.11,932.59,456.25,938.51,445.66,937.82ZM335.8,909l24.71-56.71c1.7-3.92.57-6.81-3.35-8.51L346.09,839,318.8,901.59l-15.66-6.82,24.71-56.71c1.7-3.92.57-6.81-3.35-8.51l-3.91-1.71,6.82-15.66,42.5,18.52c9.73,4.24,13.08,12.75,8.84,22.49l-27.29,62.63ZM264,830.81l-6.35-4.55c-8.72-6.25-10.19-15.1-3.93-23.83l9.94-13.88c6.18-8.63,15.11-10.2,23.83-3.94l24.3,17.4-9.94,13.89L282.7,802.19c-3.47-2.49-6.43-1.91-8.92,1.56l-2.49,3.47c-2.48,3.47-2,6.37,1.47,8.85l6.35,4.55c8.72,6.25,10.12,15.2,3.93,23.83l-9.94,13.89c-6.25,8.72-15.11,10.19-23.83,3.93l-21.92-15.7,9.94-13.88,16.77,12c3.47,2.48,6.36,2,8.85-1.47l2.48-3.47C267.88,836.29,267.47,833.3,264,830.81ZM183,806l42.44-42.11,12,12.13L195,818.11Zm67.68-55.12a8.54,8.54,0,1,1-12.07,0A8.57,8.57,0,0,1,250.68,750.87ZM110.59,706.8l59.31-33.93c9.21-5.27,18-2.87,23.3,6.35l7.45,13-14.82,8.48-4.24-7.41c-2.12-3.71-5.12-4.52-8.83-2.4l-53.69,30.71Zm-20.07-53c-9.46-4.61-12.52-13.49-7.92-23l10.54-21.44,42-14.48,21.52,10.38c9.46,4.61,12.53,13.49,7.92,22.95l-10.5,21.56-42,14.48Zm10-21.13c-1.92,3.76-.89,6.76,3,8.65L113,646l29.06-10,4.61-9.46c1.89-3.87.85-6.87-3-8.65l-9.43-4.49-29.06,10Zm28.89-92.09-.22-1.44,16.9-2.54,1.17,7.84c1.58,10.5-3.85,17.85-14.35,19.43l-44.4,6.67c-4.22.63-6,3-5.33,7.22l.22,1.44-16.89,2.54-1.16-7.72c-1.6-10.62,3.73-17.83,14.35-19.43L124,548C128.2,547.33,130.05,544.84,129.41,540.61ZM60.24,459.32l.26-7.93,17.07.57,0,1.46c-.14,4.27,1.86,6.53,6.13,6.67l61.94,2L145,479.2l-22.8-.75-22,20.63,44.14,1.46-.56,17.07L58.42,514.8,59,497.73l15.6.51,22-20.63L76.75,477C66,476.6,59.89,469.93,60.24,459.32ZM85.51,348.61,143,371.49c4,1.58,6.82.35,8.4-3.62l4.46-11.22L92.37,331.38l6.32-15.87,57.47,22.88c4,1.58,6.82.35,8.4-3.62l1.58-4L182,337.12,164.86,380.2c-3.92,9.86-12.32,13.47-22.18,9.55L79.2,364.48Zm75.86-74.28,4.34-6.49c6-8.92,14.77-10.66,23.69-4.69l14.2,9.49c8.82,5.91,10.67,14.77,4.7,23.7l-16.62,24.84-14.2-9.5,13.09-19.57c2.38-3.55,1.71-6.49-1.84-8.87l-3.55-2.37c-3.55-2.38-6.43-1.81-8.8,1.74L172,289.1c-6,8.93-14.87,10.6-23.7,4.7l-14.19-9.5c-8.92-6-10.67-14.77-4.7-23.69l15-22.41,14.2,9.5-11.47,17.14c-2.37,3.54-1.8,6.42,1.75,8.8l3.55,2.37C156,278.38,159,277.88,161.37,274.33Zm22.23-81.75L227,233.65,215.3,246.06,171.87,205Zm57.25,65.89a8.54,8.54,0,1,1-.34-12.07A8.58,8.58,0,0,1,240.85,258.47Z" style="fill:#02e2ac"/></svg>