<svg id="Layer_1" data-name="Layer 1" xmlns="http://www.w3.org/2000/svg" width="1209.48" height="279.95" viewBox="0 0 1209.48 279.95"><path id="Join_Us" data-name="Join Us" d="M100.38,6.39V220.13c0,33.2-20.23,53.43-53.43,53.43H0V220.13H26.72c13.36,0,20.23-6.87,20.23-20.23V6.39Zm101.9,11.07c23.28-23.28,52.67-23.28,76,0L330.9,70.51V209.44l-52.67,53.05c-23.28,23.28-52.67,23.28-76,0l-53.05-53.05V70.51ZM254.57,68.6c-9.16-9.54-19.09-9.54-28.63,0L202.66,91.89v96.18l23.28,23.28c9.54,9.54,19.47,9.54,28.63,0l22.9-23.28V91.89ZM463.33,220.13h4.58v53.43H443.1c-33.2,0-53.43-20.23-53.43-53.43V79.67c0-13.36-6.49-19.84-19.85-19.84h-4.58V6.39h24.43c33.59,0,53.43,19.85,53.43,53.44V199.9C443.1,213.26,450,220.13,463.33,220.13ZM674.77,6.39h24.81V59.83H695c-13.36,0-20.23,6.48-20.23,19.84V273.56H621.34V202.19L554.55,135.4V273.56H501.11V6.39h53.44V55.25L621.34,122V59.83C621.34,26.24,641.57,6.39,674.77,6.39Zm209.53,0V199.9c0,13.36,6.87,20.23,20.23,20.23h37.78V6.39h53.44V199.9c0,13.36,6.87,20.23,20.22,20.23h13.36v53.43h-145c-33.21,0-53.44-20.23-53.44-53.43V6.39Zm247.32,106.87H1156c33.59,0,53.44,19.85,53.44,53.43v53.44c0,33.2-19.85,53.43-53.44,53.43h-93.51V220.13h73.67c13.35,0,19.84-6.87,19.84-20.23V186.54c0-13.36-6.49-19.85-19.84-19.85h-24.43c-33.59,0-53.43-20.23-53.43-53.43V59.83c0-33.59,19.84-53.44,53.43-53.44h84.35V59.83h-64.5c-13.36,0-19.85,6.48-19.85,19.84V93C1111.77,106.39,1118.26,113.26,1131.62,113.26Z" style="fill:#02e2ac"/></svg>