<svg id="Layer_1" data-name="Layer 1" xmlns="http://www.w3.org/2000/svg" width="444.55" height="148.58" viewBox="0 0 444.55 148.58"><path id="Moonshot_Collective" data-name="Moonshot Collective" d="M120.07,4c1.17,4,1.83,5.93,3.26,9.89q-7,16.16-14,32.33c-1.34,3.09-.57,4.68,2.28,4.68h.9c-2.06,4.94-3.08,7.41-5.14,12.36H101.9c-7.4,0-9.68-4.68-6-12.36q7.62-16,15.25-32.06c-.41-1.21-.61-1.81-1-3-.67-2.12-2.47-2.12-5.25,0l-4,3-23,44.42H66Q78.44,41.06,90.87,18.85c-.31-1.21-.45-1.81-.74-3-.51-2.21-2.24-2.2-5.32,0l-4.22,3L53.85,63.27H41.94L73.72,13.9C79.42,9.94,82.2,8,87.64,4c7.4-5.39,10.64-5.3,11.8,0,.5,2.29.77,3.44,1.36,5.74,3-2.3,4.53-3.45,7.47-5.74C115-1.2,118.48-1.38,120.07,4Zm34.19,17.93c2.43,4.59,3.74,6.89,6.53,11.48s1.09,11.92-4.19,16.43-8.17,6.89-13.91,11.48-13.09,4.59-15.79,0-4.05-6.89-6.45-11.48c-2.36-5.61,1.9-13.24,6.37-16.43,5.7-4.59,8.47-6.89,13.83-11.48S151.87,17.43,154.26,21.94ZM146.35,34.3c-1.18-2.12-3.09-2.21-5.74,0-1.91,1.63-2.88,2.44-4.84,4.06-2.71,2.21-3.49,4.33-2.26,6.54.87,1.63,1.32,2.44,2.23,4.06,1.29,2.21,3.46,2.12,6.06,0,2-1.62,3-2.43,4.92-4.06,2.54-2.12,3.17-4.42,1.94-6.54C147.71,36.74,147.25,35.93,146.35,34.3Zm49.3-12.36c3.22,4.59,4.91,6.89,8.48,11.48s3.11,11.92-1.41,16.43-7,6.89-12,11.48-12.31,4.59-15.79,0-5.21-6.89-8.39-11.48-1.28-11.93,3.59-16.43,7.31-6.89,11.89-11.48S192.5,17.43,195.65,21.94ZM189.84,34.3c-1.54-2.12-3.47-2.21-5.74,0-1.64,1.63-2.47,2.44-4.15,4.06-2.34,2.21-2.76,4.33-1.16,6.54,1.15,1.63,1.73,2.44,2.92,4.06,1.66,2.21,3.82,2.12,6.06,0,1.71-1.62,2.56-2.43,4.23-4.06,2.18-2.12,2.43-4.42.83-6.54C191.61,36.74,191,35.93,189.84,34.3ZM215.71,37c.13-3.09-1.1-4.59-3.76-4.59H211c.3-4.95.44-7.42.73-12.37h23.61c6.28,0,10.47,4.6,11.09,12.37.44,5.55.66,8.32,1.11,13.87.24,3.09,1.75,4.68,4.6,4.68h1c.49,4.94.73,7.41,1.22,12.36h-5.44c-7.19.21-12.38-5.29-12.38-12.36L236,37c-.11-3.09-1.54-4.59-4.19-4.59h-5.31q0,15.45,0,30.91H214.66Zm53.7-7.06c-1.5,2.2-1.09,4.41,1,6.44,1.8,1.73,2.72,2.6,4.57,4.33,4.92,3.69,7.62,12.44,3.27,17.58-2.91,3.78-4.43,5.67-7.58,9.45-4-3.57-6-5.36-9.82-8.92,1.95-2.41,2.9-3.61,4.75-6,1.73-2.21,1.35-4.5-.78-6.53-1.82-1.74-2.71-2.6-4.48-4.33-4.82-3.9-6.3-12.53-2.26-17.49,2.68-3.82,4-5.72,6.39-9.54,3.46,3.57,5.25,5.35,8.92,8.92C271.87,26.23,271.06,27.45,269.41,29.89ZM285.94,1.45q2.46,9.27,4.94,18.54h8.88c7.1.16,12.28,6,14.37,12.37l4.78,13.87c1.07,3.09,3,4.68,5.85,4.68h1l4.5,12.36h-5.45c-7.57,0-13.64-5.23-15.65-12.36-1.7-5.59-2.54-8.38-4.24-14-.93-3.09-2.75-4.59-5.41-4.59h-5.31l8.25,30.91H290.52L276.6,1.45Zm58.87,20.49q7.63,5.85,15.46,11.48c4.27,4.15,10.36,9.51,8.6,16.43-1.81,4.59-2.8,6.89-5,11.48s-9.52,4.59-15.8,0q-7.77-5.62-15.39-11.48c-4.59-3.15-8.62-10.8-6.42-16.43,2.14-4.59,3.12-6.89,4.9-11.48S338.91,17.43,344.81,21.94Zm1.71,12.36c-2.83-2.12-4.81-2.21-5.73,0-.65,1.63-1,2.44-1.68,4.06-1,2.21-.12,4.33,2.82,6.54,2.14,1.63,3.22,2.44,5.4,4.06,3,2.21,5.11,2.12,6.06,0,.72-1.62,1.07-2.43,1.75-4.06.89-2.12-.26-4.42-3.15-6.54C349.78,36.74,348.69,35.93,346.52,34.3ZM359.74,20h.87c2.52,0,2.85-1.59,1.09-4.68l-4.38-7.68h9.59c3,5,4.53,7.42,7.56,12.36h7.21l7.93,12.37H382l8.47,13.86c1.89,3.1,4.32,4.69,7.17,4.69h1.87c3.14,4.94,4.7,7.41,7.84,12.36H400.9C392.66,63,386.06,57.85,382,50.91L371.4,32.36h-4.86ZM40.91,83c4.81-2.16,14.19-7.52,18,0,2.16,4.49,3.33,6.73,5.83,11.22-5.45,3.46-8.23,5.19-13.89,8.65-1.79-3.21-2.65-4.82-4.27-8-1.07-2.12-3.42-2.2-7.08,0-2.87,1.73-4.31,2.6-7.23,4.33L17.6,123.5c1,1.73,1.47,2.59,2.5,4.33,1.31,2.2,4.12,2.12,7.81,0,5.62-3.22,8.38-4.83,13.81-8,2.13,3.46,3.25,5.19,5.58,8.65q-9.66,5.67-19.39,11.22c-6.4,2.82-16,7.5-21.34,0-2.8-4.49-4.11-6.73-6.57-11.22L22.05,94.18Q31.53,88.63,40.91,83Zm59.87,17.93c3.22,4.59,4.92,6.89,8.5,11.48,3.88,5.45-.62,13.69-5.72,16.43-6,3.9-12,7.69-18,11.48-5.77,3.56-14.92,5.56-20.19,0-3.53-4.59-5.21-6.89-8.4-11.48-3.58-6.43,2.77-13.34,7.91-16.43,6-3.79,12-7.58,17.93-11.48C87.88,97.41,96.24,95.37,100.78,100.89ZM90.39,113.25c-1.54-2.12-4-2.2-7.49,0-2.49,1.63-3.74,2.44-6.28,4.07-3.5,2.2-4.48,4.32-2.87,6.53,1.14,1.63,1.72,2.44,2.91,4.06,1.66,2.21,4.46,2.12,7.82,0,2.57-1.62,3.85-2.43,6.38-4.06,3.3-2.12,4.14-4.41,2.55-6.53C92.18,115.69,91.58,114.88,90.39,113.25ZM143.77,80.4q-6.08,22.38-12.16,44.78c-.84,3.09.62,4.68,4.29,4.68h1.25c-1.24,4.94-1.87,7.42-3.11,12.36H127c-7.22.53-14.4-4.45-11.32-12.36q7.74-24.74,15.49-49.46Zm26.32,0-8.28,44.78c-.57,3.09,1,4.68,4.7,4.68h1.25c-.81,4.94-1.22,7.42-2,12.36h-7.05c-7.24.46-14.69-4.25-12.4-12.36q5.59-24.74,11.2-49.46Zm35.48,59.44c-4.47,3.5-6.75,5.24-11.43,8.74-5.23-4.47-10.38-9.07-15.4-13.78-.66-.61-3.17-3.79-2.39-9.27.81-5.69,1.22-8.53,2-14.22,1-7.69,7.59-12.57,15.16-12.37H204c6.35-.21,16.93,1.85,17.07,9.72.06,3.33-2.29,6.89-5.94,10q-8.66,7.23-17.48,14.22C200.73,135.65,202.32,137.05,205.57,139.84Zm-3.68-25.35c.53-.44,1.42-3.27-1.95-3.27h-2.58c-3.48,0-5.33,1.59-5.62,4.51s-.47,4.55-.77,7.59C195.44,119.79,197.62,118,201.89,114.49Zm52.33-1.24c-2.68-2.2-5.22-2.12-7.49,0-1.74,1.63-2.62,2.44-4.4,4.07-2.33,2.12-2.26,4.41.31,6.53,2,1.63,3,2.44,5,4.06,2.63,2.12,5.4,2.21,7.82,0,1.47-1.37,2.2-2.06,3.63-3.44,4.38,3.46,6.62,5.19,11.2,8.66-3,2.86-4.58,4.29-7.75,7.15-5.77,4.75-14.32,4.35-20.19,0-5.81-4.59-8.63-6.89-14.1-11.48-5-3.82-5-12.52-.1-16.43,5.16-4.59,7.64-6.89,12.44-11.48,5.1-4.65,12.82-4.34,18,0,3.36,2.86,5.08,4.29,8.58,7.15-3.42,3.46-5.19,5.2-8.81,8.66C256.68,115.32,255.86,114.63,254.22,113.25Zm17.93-14.31h1.15c3.35,0,4.72-1.58,4.22-4.68l-1.25-7.68h12.88c1,5,1.51,7.42,2.52,12.36h9.56c1.16,5,1.73,7.42,2.89,12.37h-9.94c1.13,5.55,1.7,8.32,2.83,13.87.63,3.09,2.84,4.68,6.51,4.68h2.41l2.8,12.36h-8.25c-8,.44-15.66-4.33-17.19-12.36q-1.52-9.29-3-18.55h-6.36C273.22,106.36,272.86,103.89,272.15,98.94Zm42.66-5.12a8.94,8.94,0,0,1-8.19-6.18,4.69,4.69,0,0,1,4.73-6.18,9.06,9.06,0,0,1,8.19,6.18C320.55,91,318.48,93.82,314.81,93.82Zm8.13,5.12,7.89,26.24c.93,3.09,3.3,4.68,7,4.68h1.26c1.58,4.94,2.37,7.42,4,12.36H336c-8.17.4-16.08-4.41-18.39-12.36q-4-15.47-8-30.92Zm55.67,0h6.12c2.44,5,3.66,7.42,6.09,12.37h-1.19c-3.48,0-4.45,1.5-3,4.59,2.56,5.41,3.84,8.11,6.41,13.52-2.92,4.09-4.45,6.14-7.65,10.24-5.5,6.59-15.17,4.13-21.33,0q-8.08-5-16.05-10.24L337.48,98.94h13.39q5,12.77,9.89,25.53l5.27,3.36c3.34,2.12,6.1,2.12,7.71,0,1-1.35,1.52-2,2.51-3.36-2.28-5.26-3.41-7.9-5.69-13.16C367,104.74,371.08,98.24,378.61,98.94Zm65.94,40.9c-2.16,3.49-3.29,5.24-5.66,8.74-8.2-4.53-16.37-9.09-24.48-13.78a24.65,24.65,0,0,1-8.5-9.27c-2.94-5.69-4.41-8.53-7.34-14.22-4-6.18-.77-13.18,7-12.37H416c8.66.12,18.49,2.51,23.47,9.72a9.39,9.39,0,0,1,.64,10c-3,5.69-4.6,8.53-8.11,14.22C437,135.65,439.47,137.05,444.55,139.84Zm-20.38-25.35c.24-.44-.72-3.27-4.1-3.27h-2.58c-3.48,0-4.28,1.59-2.65,4.51l4.23,7.59C421.22,119.79,422.24,118,424.17,114.49Z" style="fill:#02e2ac"/></svg>