<svg id="Layer_1" data-name="Layer 1" xmlns="http://www.w3.org/2000/svg" width="210" height="210" viewBox="0 0 210 210"><path id="Planet" d="M199.71,73.76A99.73,99.73,0,1,1,73.76,10.29,99.73,99.73,0,0,1,199.71,73.76ZM5.85,90.19c3.49-1,6.38-3.44,9.67-5,6.81-3.18,14.8-2.31,22.09-.51s14.48,4.47,22,4.71c15.41.48,29.09-9.2,41.17-18.76s25-19.89,40.32-21.12c7.62-.6,15.22,1.13,22.83,1.9s15.8.44,22.18-3.78M13.22,143.57c1.54,3.65,6.18,4.63,10.14,4.9a109.81,109.81,0,0,0,36-3.58,52.5,52.5,0,0,0,14-5.64c10.83-6.66,18.35-19.36,30.85-21.64,5.18-.94,10.49.11,15.71.86a134.73,134.73,0,0,0,33.93.54c5-.55,10.09-1.44,14.27-4.18,3.86-2.53,6.59-6.41,9.74-9.79A49,49,0,0,1,203,90.69m-6.66,54.74c-7.83,2.26-16.11,2.1-24.25,2.53s-16.57,1.6-23.37,6.08c-6.4,4.21-10.71,10.91-16.59,15.83a37.14,37.14,0,0,1-21.92,8.54c-6.74.32-13.42-1.21-20.08-2.31s-13.63-1.73-20.07.31-12.61,8.72-13.39,15.43M24.81,46.07c7.41,1.26,13.55,2.48,21.06,2.58s15.17-1,21.94-4.25c5.4-2.59,10.14-6.49,15.74-8.61,10.71-4.07,23.13-1.11,33.84-5.18,9.17-3.48,15.68-11.54,21.74-19.25" style="fill:none;stroke:#6f3ff5;stroke-miterlimit:10;stroke-width:2px"/></svg>