<svg id="Layer_1" data-name="Layer 1" xmlns="http://www.w3.org/2000/svg" width="210.1" height="69.02" viewBox="0 0 210.1 69.02"><g id="Rocket_1" data-name="Rocket 1"><path d="M79.06,49.65c.85,4.76,1.85,5.84,2.37,6.07l1.61.19-.11.36c22.84,6.79,42.88,10.28,59.55,10.37,26.68.15,43.86-8.68,53.58-16.11l.4-.31c9.67-7.5,13.6-14.72,13.64-14.79h0c-.08-.17-3.92-7.37-13.48-15l-.17-.16c-9.83-7.66-26.92-16.7-53.6-16.85-16.67-.09-36.75,3.17-59.68,9.7l0,.13L82,13.66c-.52.18-1.74.95-2.72,6l-.18.94-2.49,0-.17-.93c-.82-4.44-2-6-2.67-6l-7.75,0-.11-1a18.37,18.37,0,0,0-2.49-7.7c-1.72-2.76-4-4.29-6.48-4.31L38.61.41c4.44,0,8.13,4.86,9,11.74l.15,1.29-15.88-.09c-.66.14-1.64.92-2.56,5.12l-.19.91-9.7-.06a2,2,0,0,0-1,1.22l-.21.59-.62.14a3.21,3.21,0,0,0-.91.33l-.37.22-.42-.08a2.49,2.49,0,0,0-.46,0,2.58,2.58,0,0,0-1.62.55l-.29.23h-.37a1.83,1.83,0,0,0-1.75,1.81,1.85,1.85,0,0,0,1.73,1.82l.37,0,.29.24a2.57,2.57,0,0,0,1.6.56,2.38,2.38,0,0,0,.46,0l.43-.08.38.23.26.1,4.51,2.22-9.21-.06a1.11,1.11,0,0,0-.59.4l-.37.51-.89-.06a3.93,3.93,0,0,0-2.14.61L7.79,31l-.47-.11a2.74,2.74,0,0,0-.7-.09,3.45,3.45,0,0,0-2.19.78l-.32.26H3.7A2.38,2.38,0,0,0,2,32.56a2.34,2.34,0,0,0-.71,1.69A2.39,2.39,0,0,0,2,36a2.42,2.42,0,0,0,1.67.71h.4l.31.26a3.53,3.53,0,0,0,2.2.81,3.34,3.34,0,0,0,.7-.08l.46-.1.4.25a4.06,4.06,0,0,0,2.16.64l.62,0,.76.68a.83.83,0,0,0,.25.18l9.57.1-5.33,2.48-.45-.09a2.3,2.3,0,0,0-.45-.05,2.59,2.59,0,0,0-1.61.55l-.29.23H13a1.84,1.84,0,0,0-1.21.53A1.82,1.82,0,0,0,13,46.16l.37,0,.29.23a2.55,2.55,0,0,0,1.6.57,2.31,2.31,0,0,0,.46,0l.43-.07.37.22a3,3,0,0,0,.9.34l.62.15.21.59a2.71,2.71,0,0,0,.53,1,1.19,1.19,0,0,0,.25.18l9.9.1.18.91c.82,4,1.72,4.87,2.18,5.07l.21.06h.36l15.6.09-.19,1.31c-1,6.58-4.71,11.37-8.93,11.42l18.21.1c4.41,0,8.23-4.9,9.09-11.71l.13-1,7.76,0c.73,0,1.88-1.59,2.75-6.1l.18-.94,2.44,0Z" style="fill:#fff"/><path d="M81,56c19.39,5.83,41.13,10.59,60.66,10.7,51,.29,67.61-31.21,67.61-31.21S193,3.84,142,3.55c-19.53-.11-41.31,4.41-60.77,10" style="fill:none;stroke:#6f3ff5;stroke-miterlimit:10"/><path d="M80.94,55.87c-2.14,0-3.82-9.45-3.75-21.09s1.85-21.06,4-21" style="fill:none;stroke:#6f3ff5;stroke-linecap:round;stroke-linejoin:round"/><path d="M77,47.9a109.7,109.7,0,0,0,.91-13.12,108.19,108.19,0,0,0-.78-13.23l6.44,0a90.65,90.65,0,0,1,.79,13.24,90.5,90.5,0,0,1-.92,13.11Z" style="fill:#5bf1cd;stroke:#6f3ff5;stroke-miterlimit:10"/><path d="M81,56c19.39,5.83,41.13,10.59,60.66,10.7,51,.29,67.61-31.21,67.61-31.21S193,3.84,142,3.55c-19.53-.11-41.31,4.41-60.77,10" style="fill:none;stroke:#6f3ff5;stroke-miterlimit:10"/><path d="M173.7,61.67c9.49-14.51,9.62-38.08.3-52.7" style="fill:none;stroke:#6f3ff5;stroke-linecap:round;stroke-linejoin:round"/><path d="M165.07,53.92c4.42-13.74,3.76-30.38-2-43.2" style="fill:none;stroke:#6f3ff5;stroke-linecap:round;stroke-linejoin:round;stroke-width:2px;stroke-dasharray:0,7.0694355964660645"/><path d="M147.62,65.85c11-16.9,11.2-44.33.34-61.34" style="fill:none;stroke:#6f3ff5;stroke-linecap:round;stroke-linejoin:round"/><circle cx="121.37" cy="35.03" r="18.42" transform="translate(-4.92 37.83) rotate(-17.37)" style="fill:#5bf1cd;stroke:#6f3ff5;stroke-linecap:round;stroke-linejoin:round"/><circle cx="121.37" cy="35.03" r="12.34" transform="translate(-4.92 37.83) rotate(-17.37)" style="fill:#ffe48d;stroke:#6f3ff5;stroke-linecap:round;stroke-linejoin:round"/><path d="M81.17,13.73c2.14,0,3.82,9.45,3.75,21.09s-1.85,21.06-4,21" style="fill:none;stroke:#6f3ff5;stroke-linecap:round;stroke-linejoin:round"/><line x1="83.94" y1="20.69" x2="70.24" y2="20.61" style="fill:none;stroke:#6f3ff5;stroke-linecap:round;stroke-linejoin:round"/><line x1="83.9" y1="27.73" x2="70.2" y2="27.65" style="fill:none;stroke:#6f3ff5;stroke-linecap:round;stroke-linejoin:round"/><line x1="83.86" y1="34.76" x2="70.16" y2="34.68" style="fill:none;stroke:#6f3ff5;stroke-linecap:round;stroke-linejoin:round"/><line x1="83.82" y1="41.79" x2="70.12" y2="41.72" style="fill:none;stroke:#6f3ff5;stroke-linecap:round;stroke-linejoin:round"/><line x1="70.08" y1="48.75" x2="83.78" y2="48.83" style="fill:none;stroke:#6f3ff5;stroke-linecap:round;stroke-linejoin:round"/><path d="M57.85,15.19c0-8.06-4-14.6-9.12-14.63L37.79.5c5.09,0,9.17,6.57,9.12,14.63" style="fill:#5bf1cd;stroke:#6f3ff5;stroke-linecap:round;stroke-linejoin:round"/><path d="M57.63,54c0,8-4.19,14.55-9.28,14.52l-10.94-.06c5.09,0,9.24-6.47,9.29-14.53" style="fill:#5bf1cd;stroke:#6f3ff5;stroke-linecap:round;stroke-linejoin:round"/><path d="M65.22,15.23c0-8-4-14.6-9.12-14.63l-7.36,0c5.08,0,9.16,6.57,9.12,14.63" style="fill:#5bf1cd;stroke:#6f3ff5;stroke-linecap:round;stroke-linejoin:round"/><path d="M65,54c0,8.06-4.19,14.55-9.28,14.53l-7.37,0c5.09,0,9.24-6.47,9.29-14.52" style="fill:#5bf1cd;stroke:#6f3ff5;stroke-linecap:round;stroke-linejoin:round"/><path d="M30.89,55.59l41.82.23c2.13,0,3.92-9.41,4-21s-1.61-21.08-3.75-21.09l-42-.23" style="fill:#fff;stroke:#6f3ff5;stroke-linecap:round;stroke-linejoin:round"/><path d="M28.3,19.33C29,15.68,30,13.44,31,13.45c2.14,0,3.82,9.45,3.75,21.09s-1.85,21.06-4,21.05c-1.05,0-2-2.32-2.67-6.05" style="fill:none;stroke:#6f3ff5;stroke-linecap:round;stroke-linejoin:round"/><path d="M38.24,13.49c2.13,0,3.81,9.45,3.75,21.09s-1.85,21.06-4,21.05" style="fill:none;stroke:#6f3ff5;stroke-linecap:round;stroke-linejoin:round"/><path d="M31,13.45c2.14,0,3.82,9.45,3.75,21.09s-1.85,21.06-4,21.05" style="fill:none;stroke:#6f3ff5;stroke-linecap:round;stroke-linejoin:round"/><path d="M34.43,39.55l-23.11-.13m.06-10,23.06.13m-15.92-.09,16,.09M18.58,19.41l14.13.08m-14.3,30,14.53.08M18.47,39.46l14.13.08" style="fill:#fff;stroke:#6f3ff5;stroke-linecap:round;stroke-linejoin:round"/><path d="M208.91,35.28a52.62,52.62,0,0,0-10-11.82l-2.82-2.54,1.39,3.53a31.88,31.88,0,0,1-.13,22.44L195.9,50.4l2.84-2.51a52.58,52.58,0,0,0,10.16-11.7l.27-.46Z" style="fill:#ffe48d"/><path d="M18.52,29.44c-.85,0-1.53-2.26-1.51-5s.72-5,1.57-5" style="fill:#fff;stroke:#6f3ff5;stroke-linecap:round;stroke-linejoin:round"/><path d="M18.41,49.48c-.85,0-1.53-2.25-1.51-5s.71-5,1.57-5" style="fill:#fff;stroke:#6f3ff5;stroke-linecap:round;stroke-linejoin:round"/><path d="M11.32,39.42c-.85,0-1.53-2.25-1.51-5s.72-5,1.57-5" style="fill:#fff;stroke:#6f3ff5;stroke-linecap:round;stroke-linejoin:round"/><path d="M19.26,42a3.1,3.1,0,0,0-3.91,0,2.6,2.6,0,0,0-.89-.16,2.55,2.55,0,0,0-1.9.82,1.43,1.43,0,0,0-.29,0,1.82,1.82,0,1,0,0,3.63l.29,0a2.55,2.55,0,0,0,2.78.68,3.08,3.08,0,0,0,3.91,0" style="fill:#ffe48d;stroke:#6f3ff5;stroke-linecap:round;stroke-miterlimit:10"/><path d="M19.37,22a3.08,3.08,0,0,0-2-.72,3.16,3.16,0,0,0-1.95.68,2.55,2.55,0,0,0-2.79.65l-.28,0a1.82,1.82,0,1,0,0,3.64l.28,0a2.59,2.59,0,0,0,1.9.84,2.37,2.37,0,0,0,.88-.16,3.06,3.06,0,0,0,3.91,0" style="fill:#ffe48d;stroke:#6f3ff5;stroke-linecap:round;stroke-miterlimit:10"/><path d="M12.14,31.19a4.16,4.16,0,0,0-2.59-1,4.06,4.06,0,0,0-2.57.9,3.53,3.53,0,0,0-1.17-.23A3.46,3.46,0,0,0,3.29,32a2.33,2.33,0,0,0-.37,0,2.4,2.4,0,1,0,0,4.8c.13,0,.25,0,.37,0a3.49,3.49,0,0,0,2.51,1.11,3.51,3.51,0,0,0,1.17-.21,4.08,4.08,0,0,0,5.16,0" style="fill:#ffe48d;stroke:#6f3ff5;stroke-linecap:round;stroke-miterlimit:10"/><path d="M11.38,29.4c.85,0,1.53,2.25,1.51,5s-.72,5-1.57,5" style="fill:none;stroke:#6f3ff5;stroke-linecap:round;stroke-linejoin:round"/><path d="M18.47,39.46c.85,0,1.52,2.25,1.51,5s-.72,5-1.57,5" style="fill:none;stroke:#6f3ff5;stroke-linecap:round;stroke-linejoin:round"/><path d="M18.58,19.41c.85,0,1.53,2.25,1.51,5s-.72,5-1.57,5" style="fill:none;stroke:#6f3ff5;stroke-linecap:round;stroke-linejoin:round"/><path d="M195.47,50.5c5.43-8.29,5.5-21.76.17-30.11" style="fill:none;stroke:#6f3ff5;stroke-linecap:round;stroke-linejoin:round"/></g></svg>