<svg id="Layer_1" data-name="Layer 1" xmlns="http://www.w3.org/2000/svg" width="131.85" height="145.41" viewBox="0 0 131.85 145.41"><g id="Rocket_3" data-name="Rocket 3"><rect x="40.54" y="87.18" width="6.02" height="19.52" transform="translate(88.12 193.41) rotate(179.39)" style="fill:#fff;stroke:#6f3ff5;stroke-miterlimit:10"/><path d="M43.8,121.12l-.18-17.58a2,2,0,0,1,2-2l17.58-.19a2,2,0,0,1,2,2l.19,17.58a2,2,0,0,1-2,2l-17.58.19A2,2,0,0,1,43.8,121.12Zm2.26,23.56,17.58-.18a2,2,0,0,0,2-2l-.19-17.59a2,2,0,0,0-2-2l-17.58.19a2,2,0,0,0-2,2L44,142.71A2,2,0,0,0,46.06,144.68ZM24.24,123.33l17.59-.19a2,2,0,0,0,2-2l-.18-17.58a2,2,0,0,0-2-2L24,101.74a2,2,0,0,0-2,2l.19,17.58A2,2,0,0,0,24.24,123.33Zm.23,21.58,17.59-.18a2,2,0,0,0,2-2l-.18-17.59a2,2,0,0,0-2-2l-17.59.19a2,2,0,0,0-2,2l.19,17.58A2,2,0,0,0,24.47,144.91Z" style="fill:#ffe48d;stroke:#6f3ff5;stroke-miterlimit:10"/><rect x="65.86" y="65.57" width="6.03" height="13.78" transform="translate(-2.85 142.1) rotate(-90.61)" style="fill:#fff;stroke:#6f3ff5;stroke-miterlimit:10"/><rect x="19.21" y="66.06" width="6.5" height="13.78" transform="translate(-50.25 96.19) rotate(-90.61)" style="fill:#fff;stroke:#6f3ff5;stroke-miterlimit:10"/><rect x="39.95" y="38.71" width="6.16" height="19.52" transform="translate(86.58 96.48) rotate(179.39)" style="fill:#fff;stroke:#6f3ff5;stroke-miterlimit:10"/><polygon points="102.22 68.3 102.3 75.8 126.36 73.44 126.33 70.14 102.22 68.3" style="fill:none;stroke:#6f3ff5;stroke-miterlimit:10"/><path d="M95.84,105.29A35.28,35.28,0,0,1,95.13,39Z" style="fill:#5bf1cd;stroke:#6f3ff5;stroke-miterlimit:10"/><rect x="58.81" y="67.65" width="77.99" height="8.89" rx="1.37" transform="translate(26.76 170.67) rotate(-90.61)" style="fill:#fff;stroke:#6f3ff5;stroke-miterlimit:10"/><rect x="-2.62" y="69.32" width="28.91" height="7.48" rx="0.82" transform="translate(-61.1 85.67) rotate(-90.61)" style="fill:#fff;stroke:#6f3ff5;stroke-miterlimit:10"/><rect x="-6.83" y="69.4" width="22.36" height="7.48" rx="0.82" transform="translate(-68.74 78.27) rotate(-90.61)" style="fill:#fff;stroke:#6f3ff5;stroke-miterlimit:10"/><circle cx="126.34" cy="71.79" r="5" transform="translate(-18.2 86.77) rotate(-35.52)" style="fill:#fff;stroke:#6f3ff5;stroke-miterlimit:10"/><rect x="25.69" y="51.14" width="35.19" height="43.17" rx="3" transform="translate(-28.98 116.79) rotate(-90.61)" style="fill:#fff;stroke:#6f3ff5;stroke-miterlimit:10"/><path d="M64.36,24.06l.19,17.59a2,2,0,0,1-2,2L45,43.86a2,2,0,0,1-2-2l-.19-17.59a2,2,0,0,1,2-2l17.59-.19A2,2,0,0,1,64.36,24.06ZM44.75,22.27l17.59-.19a2,2,0,0,0,2-2L64.13,2.48a2,2,0,0,0-2-2L44.52.69a2,2,0,0,0-2,2l.19,17.58A2,2,0,0,0,44.75,22.27ZM23.4,44.09,41,43.9a2,2,0,0,0,2-2l-.19-17.59a2,2,0,0,0-2-2l-17.58.19a2,2,0,0,0-2,2l.19,17.59A2,2,0,0,0,23.4,44.09ZM23.17,22.5l17.58-.19a2,2,0,0,0,2-2L42.54,2.71a2,2,0,0,0-2-2L22.94.92a2,2,0,0,0-2,2l.19,17.58A2,2,0,0,0,23.17,22.5Z" style="fill:#ffe48d;stroke:#6f3ff5;stroke-miterlimit:10"/></g></svg>