<svg id="Layer_1" data-name="Layer 1" xmlns="http://www.w3.org/2000/svg" width="216.3" height="69.71" viewBox="0 0 216.3 69.71"><g id="Rocket_2" data-name="Rocket 2"><path d="M35.24,40.92C27.61,42,23.93,52.21,15.62,51.25c-1.51.43-8.49-1-11.21-2.77-.76-.51-.56-2,.29-2.08a8.71,8.71,0,0,0,4-1.59c6.37-4.53.85-7.32-7.35-4.21-2.63,1,1.84-7.74,3.56-8.89,2.21-1.47,6.73-.8,9.94,1.14A3.75,3.75,0,0,0,20.23,31a2.77,2.77,0,0,0,.11-2.6A12.46,12.46,0,0,0,4.81,25.29a.54.54,0,0,1-.65-.83c6-8.53,19.65-8,24.41,1a8.09,8.09,0,0,0,6.5,4.05" style="fill:#ffe48d;stroke:#6f3ff5;stroke-linecap:round;stroke-linejoin:round"/><rect x="29.86" y="29.67" width="21.78" height="10.65" transform="translate(75.15 -6.26) rotate(89.18)" style="fill:#fff;stroke:#6f3ff5;stroke-miterlimit:10"/><rect x="32.89" y="29.57" width="29.22" height="10.65" transform="translate(81.7 -13.1) rotate(89.18)" style="fill:#fff;stroke:#6f3ff5;stroke-miterlimit:10"/><path d="M50.41,52.27l-.5-34.83,105.65-1.52a85.36,85.36,0,0,1,21.3,2.39l37.85,12.81a1.42,1.42,0,0,1,0,2.75L177.28,47.76a85,85,0,0,1-21.22,3Z" style="fill:#fff;stroke:#6f3ff5;stroke-miterlimit:10"/><rect x="75.59" y="27.95" width="34.84" height="12.58" transform="translate(125.91 -59.25) rotate(89.18)" style="fill:#5bf1cd;stroke:#6f3ff5;stroke-miterlimit:10"/><polygon points="50.65 69.21 50.41 52.27 136.36 51.04 50.65 69.21" style="fill:#fff;stroke:#6f3ff5;stroke-linecap:round;stroke-linejoin:round"/><polygon points="49.67 0.5 49.91 17.44 135.86 16.2 49.67 0.5" style="fill:#fff;stroke:#6f3ff5;stroke-linecap:round;stroke-linejoin:round"/><circle cx="163.98" cy="32.72" r="7.51" transform="translate(118.85 193.73) rotate(-85.63)" style="fill:#ffe48d;stroke:#6f3ff5;stroke-miterlimit:10"/></g></svg>