<svg width="336" height="336" viewBox="0 0 336 336" fill="none" xmlns="http://www.w3.org/2000/svg">
<path d="M121 320.886L136.077 334L207 238L121 320.886Z" fill="#6F3FF5"/>
<path d="M76 298.896L86.326 316L184 247L76 298.896Z" fill="#6F3FF5"/>
<path d="M40 264.531L44.4043 284L159 248L40 264.531Z" fill="#6F3FF5"/>
<path d="M16.7759 220L15 240.15L135 241L16.7759 220Z" fill="#6F3FF5"/>
<path d="M7.87666 171L0 189.33L114 227L7.87666 171Z" fill="#6F3FF5"/>
<path d="M15.1138 121L2 136.077L98 207L15.1138 121Z" fill="#6F3FF5"/>
<path d="M36.3519 76L19 86.326L89 184L36.3519 76Z" fill="#6F3FF5"/>
<path d="M71.4685 40L52 44.4043L88 159L71.4685 40Z" fill="#6F3FF5"/>
<path d="M116 16.7759L95.8502 15L95 135L116 16.7759Z" fill="#6F3FF5"/>
<path d="M165 7.87666L146.67 0L109 114L165 7.87666Z" fill="#6F3FF5"/>
<path d="M215 15.1138L199.923 2L129 98L215 15.1138Z" fill="#FFCC00"/>
<path d="M260 36.2881L249.674 19L152 89L260 36.2881Z" fill="#FFCC00"/>
<path d="M296 71.4685L291.596 52L177 88L296 71.4685Z" fill="#FFCC00"/>
<path d="M319.224 116L321 95.8502L201 95L319.224 116Z" fill="#FFCC00"/>
<path d="M328.123 165L336 146.586L222 109L328.123 165Z" fill="#FFCC00"/>
<path d="M320.886 215L334 199.923L238 129L320.886 215Z" fill="#6F3FF5"/>
<path d="M298.896 260L316 249.674L247 152L298.896 260Z" fill="#6F3FF5"/>
<path d="M264.531 296L284 291.596L248 177L264.531 296Z" fill="#6F3FF5"/>
<path d="M220 319.224L240.15 321L241 201L220 319.224Z" fill="#6F3FF5"/>
<path d="M171 328.039L189.33 336L227 222L171 328.039Z" fill="#6F3FF5"/>
</svg>
