<svg width="159" height="43" viewBox="0 0 159 43" fill="none" xmlns="http://www.w3.org/2000/svg">
<path d="M55.9146 7.80005H58.5146L60.2146 13.5001L63.9146 7.80005H66.5146L64.5146 19.2001H61.8146L62.9146 13.0001L60.5146 16.6001H58.7146L57.6146 13.0001L56.5146 19.2001H53.8146L55.9146 7.80005Z" fill="#6F3FF5"/>
<path d="M69.6145 11.9C69.9145 10.2 70.2145 9.39997 71.0145 8.69997C71.9145 7.89997 72.8145 7.59998 74.5145 7.59998C77.2145 7.59998 78.5145 8.59997 78.5145 10.7C78.5145 11.2 78.4146 11.7 78.3146 12.5L77.8146 15.1C77.5146 16.8 77.2146 17.6 76.4146 18.3C75.5146 19.1 74.6145 19.4 73.0145 19.4C71.4145 19.4 70.5146 19.2 69.8146 18.5C69.2146 18 68.9146 17.2 68.9146 16.2C68.9146 15.7 69.0145 15.1 69.1145 14.4L69.6145 11.9ZM75.5145 12.4C75.6145 11.8 75.6145 11.4 75.6145 11.1C75.6145 10.2 75.2146 9.89997 74.3146 9.89997C73.1146 9.89997 72.6146 10.4 72.3146 12.4L71.9146 14.6C71.8146 15.1 71.8146 15.6 71.8146 15.9C71.8146 16.7 72.2145 17.1 73.1145 17.1C74.3145 17.1 74.8145 16.6 75.1145 14.6L75.5145 12.4Z" fill="#6F3FF5"/>
<path d="M81.8146 11.9C82.1146 10.2 82.4146 9.39997 83.2146 8.69997C84.1146 7.89997 85.0146 7.59998 86.7146 7.59998C89.4146 7.59998 90.7146 8.59997 90.7146 10.7C90.7146 11.2 90.6146 11.7 90.5146 12.5L90.0146 15.1C89.7146 16.8 89.4146 17.6 88.6146 18.3C87.7146 19.1 86.8146 19.4 85.2146 19.4C83.6146 19.4 82.7146 19.2 82.0146 18.5C81.4146 18 81.1146 17.2 81.1146 16.2C81.1146 15.7 81.2146 15.1 81.3146 14.4L81.8146 11.9ZM87.7146 12.4C87.8146 11.8 87.8146 11.4 87.8146 11.1C87.8146 10.2 87.4146 9.89997 86.5146 9.89997C85.3146 9.89997 84.8146 10.4 84.5146 12.4L84.1146 14.6C84.0146 15.1 84.0146 15.6 84.0146 15.9C84.0146 16.7 84.4146 17.1 85.3146 17.1C86.5146 17.1 87.0146 16.6 87.3146 14.6L87.7146 12.4Z" fill="#6F3FF5"/>
<path d="M95.1146 7.80005H97.9146L100.215 14.5001L101.415 7.80005H104.215L102.215 19.2001H99.4146L97.1146 12.5001L95.9146 19.2001H93.1146L95.1146 7.80005Z" fill="#6F3FF5"/>
<path d="M107.515 15.9C107.915 16.8 108.515 17.1 109.715 17.1C110.815 17.1 111.415 16.6 111.415 15.7C111.415 15.2 111.115 15 110.415 14.8C108.615 14.3 108.215 14.2 107.615 13.7C106.915 13.2 106.615 12.5 106.615 11.5C106.615 9 108.215 7.5 111.015 7.5C113.115 7.5 114.415 8.1 114.915 9.5L112.615 10.8C112.215 10 111.715 9.7 110.915 9.7C110.015 9.7 109.515 10.2 109.515 11C109.515 11.6 109.915 11.8 111.215 12.2C113.515 12.8 114.215 13.5 114.215 15C114.215 16.3 113.815 17.4 113.115 18.1C112.315 18.8 111.115 19.2 109.515 19.2C108.115 19.2 106.915 18.9 106.115 18.4C105.615 18.1 105.315 17.7 105.115 17.1L107.515 15.9Z" fill="#6F3FF5"/>
<path d="M118.715 7.80005H121.515L120.715 12.3H123.515L124.315 7.80005H127.115L125.115 19.2001H122.315L123.115 14.6001H120.315L119.515 19.2001H116.715L118.715 7.80005Z" fill="#6F3FF5"/>
<path d="M130.215 11.9C130.515 10.2 130.815 9.39997 131.615 8.69997C132.515 7.89997 133.415 7.59998 135.115 7.59998C137.815 7.59998 139.115 8.59997 139.115 10.7C139.115 11.2 139.015 11.7 138.915 12.5L138.415 15.1C138.115 16.8 137.815 17.6 137.015 18.3C136.115 19.1 135.215 19.4 133.615 19.4C132.015 19.4 131.115 19.2 130.415 18.5C129.815 18 129.515 17.2 129.515 16.2C129.515 15.7 129.615 15.1 129.715 14.4L130.215 11.9ZM136.115 12.4C136.215 11.8 136.215 11.4 136.215 11.1C136.215 10.2 135.815 9.89997 134.915 9.89997C133.715 9.89997 133.215 10.4 132.915 12.4L132.515 14.6C132.415 15.1 132.415 15.6 132.415 15.9C132.415 16.7 132.815 17.1 133.715 17.1C134.915 17.1 135.415 16.6 135.715 14.6L136.115 12.4Z" fill="#6F3FF5"/>
<path d="M144.815 10.1001H141.915L142.315 7.80005H151.015L150.615 10.1001H147.715L146.115 19.2001H143.315L144.815 10.1001Z" fill="#6F3FF5"/>
<path d="M62.4146 32.9999C62.2146 34.0999 61.8146 34.6999 61.2146 35.3999C60.4146 36.1999 59.4146 36.4999 57.8146 36.4999C56.4146 36.4999 55.5146 36.1999 54.8146 35.5999C54.2146 35.0999 53.9146 34.2999 53.9146 33.3999C53.9146 32.9999 54.0146 32.4999 54.1146 31.5999L54.5146 29.0999C54.8146 27.2999 55.1146 26.5999 55.9146 25.8999C56.7146 25.0999 57.7146 24.7999 59.2146 24.7999C60.5146 24.7999 61.5146 25.0999 62.1146 25.5999C62.7146 26.0999 63.0146 26.8999 63.0146 27.6999C63.0146 27.8999 63.0146 28.0999 62.9146 28.2999L60.3146 28.4999C60.3146 28.3999 60.3146 28.2999 60.3146 28.1999C60.3146 27.3999 59.9146 26.9999 59.1146 26.9999C58.0146 26.9999 57.6146 27.5999 57.2146 29.4999L56.8146 31.5999C56.7146 32.2999 56.6146 32.5999 56.6146 32.9999C56.6146 33.7999 56.9146 34.1999 57.8146 34.1999C58.8146 34.1999 59.3146 33.7999 59.6146 32.6999L62.4146 32.9999Z" fill="#6F3FF5"/>
<path d="M66.0146 28.9C66.3146 27.2 66.6146 26.4 67.4146 25.7C68.3146 24.9 69.2146 24.6 70.9146 24.6C73.6146 24.6 74.9146 25.6 74.9146 27.7C74.9146 28.2 74.8146 28.7 74.7146 29.5L74.2146 32.1C73.9146 33.8 73.6146 34.6 72.8146 35.3C71.9146 36.1 71.0146 36.4 69.4146 36.4C67.8146 36.4 66.9146 36.2 66.2146 35.5C65.6146 35 65.3146 34.2 65.3146 33.2C65.3146 32.7 65.4146 32.1 65.5146 31.4L66.0146 28.9ZM71.9146 29.4C72.0146 28.8 72.0146 28.4 72.0146 28.1C72.0146 27.2 71.6146 26.9 70.7146 26.9C69.5146 26.9 69.0146 27.4 68.7146 29.4L68.3146 31.6C68.2146 32.1 68.2146 32.6 68.2146 32.9C68.2146 33.7 68.6146 34.1 69.5146 34.1C70.7146 34.1 71.2146 33.6 71.5146 31.6L71.9146 29.4Z" fill="#6F3FF5"/>
<path d="M79.2146 24.7999H82.0146L80.4146 33.8999H85.0146L84.6146 36.1999H77.1146L79.2146 24.7999Z" fill="#6F3FF5"/>
<path d="M89.6146 24.7999H92.4146L90.8146 33.8999H95.4146L95.0146 36.1999H87.5146L89.6146 24.7999Z" fill="#6F3FF5"/>
<path d="M100.115 24.7999H107.515L107.115 27.0999H102.515L102.115 29.2999H106.015L105.615 31.5999H101.715L101.315 33.8999H106.015L105.515 36.1999H98.0146L100.115 24.7999Z" fill="#6F3FF5"/>
<path d="M117.815 32.9999C117.615 34.0999 117.215 34.6999 116.615 35.3999C115.815 36.1999 114.815 36.4999 113.215 36.4999C111.815 36.4999 110.915 36.1999 110.215 35.5999C109.615 35.0999 109.315 34.2999 109.315 33.3999C109.315 32.9999 109.415 32.4999 109.515 31.5999L109.915 29.0999C110.215 27.2999 110.515 26.5999 111.315 25.8999C112.115 25.0999 113.115 24.7999 114.615 24.7999C115.915 24.7999 116.915 25.0999 117.515 25.5999C118.115 26.0999 118.415 26.8999 118.415 27.6999C118.415 27.8999 118.415 28.0999 118.315 28.2999L115.715 28.4999C115.715 28.3999 115.715 28.2999 115.715 28.1999C115.715 27.3999 115.315 26.9999 114.515 26.9999C113.415 26.9999 113.015 27.5999 112.615 29.4999L112.215 31.5999C112.115 32.2999 112.015 32.5999 112.015 32.9999C112.015 33.7999 112.315 34.1999 113.215 34.1999C114.215 34.1999 114.715 33.7999 115.015 32.6999L117.815 32.9999Z" fill="#6F3FF5"/>
<path d="M124.015 27.0999H121.115L121.515 24.7999H130.215L129.815 27.0999H126.915L125.315 36.1999H122.515L124.015 27.0999Z" fill="#6F3FF5"/>
<path d="M132.915 24.7999H135.715L133.715 36.1999H130.915L132.915 24.7999Z" fill="#6F3FF5"/>
<path d="M138.415 24.7999H141.215L142.115 32.4999L145.715 24.7999H148.615L142.715 36.1999H140.215L138.415 24.7999Z" fill="#6F3FF5"/>
<path d="M151.415 24.7999H158.815L158.415 27.0999H153.815L153.415 29.2999H157.315L156.915 31.5999H153.015L152.615 33.8999H157.315L156.915 36.1999H149.415L151.415 24.7999Z" fill="#6F3FF5"/>
<path d="M23.8146 18.8C28.6146 23.6 36.3146 23.6 41.0146 18.8C41.6146 18.2 42.1146 17.6 42.5146 16.9C37.8146 20 31.3146 19.5 27.1146 15.4C22.9146 11.2 22.4146 4.8 25.5146 0C24.8146 0.4 24.2146 0.9 23.6146 1.5C19.0146 6.3 19.0146 14 23.8146 18.8Z" fill="#6F3FF5"/>
<path d="M17.3146 7.3999L4.0146 22.9999C-1.9854 30.0999 -1.1854 30.8999 5.9146 24.8999L16.4146 15.8999C16.0146 13.0999 16.3146 10.1999 17.3146 7.3999Z" fill="#6F3FF5"/>
<path d="M27.0146 26.2999L17.9146 37C11.9146 44.1 12.7146 44.8999 19.8146 38.8999L35.8146 25.2C33.0146 26.3 29.9146 26.6999 27.0146 26.2999Z" fill="#6F3FF5"/>
<path d="M20.3146 22.3C19.8146 21.8 19.1146 21 18.6146 20.5L7.91462 33C0.214617 41.7 1.11461 42.6 9.81461 34.9L22.5146 24.3C21.9146 23.9 20.8146 22.9 20.3146 22.3Z" fill="#6F3FF5"/>
</svg>
